<svg width="94" height="94" viewBox="0 0 94 94" fill="none" xmlns="http://www.w3.org/2000/svg">
<path fill-rule="evenodd" clip-rule="evenodd" d="M47 0C72.9574 0 94 21.0426 94 47C94 72.9574 72.9574 94 47 94C21.0426 94 0 72.9574 0 47C0 21.0426 21.0426 0 47 0ZM49.6592 21.0488C46.9065 20.9756 45.3979 20.9686 41.5312 21.1572C41.4957 21.1582 41.4599 21.1582 41.4238 21.1592C39.9947 21.1888 38.6753 21.22 37.4414 21.251C35.0137 21.301 32.2306 21.3544 29.457 21.4307C27.9862 21.4393 26.8691 21.4521 26.1152 21.4688C25.7383 21.4771 25.443 21.4871 25.2373 21.498C25.1377 21.5033 25.0424 21.5097 24.9639 21.5186C24.9292 21.5225 24.8667 21.5298 24.7998 21.5449C24.7712 21.5514 24.698 21.5688 24.6123 21.6055C24.5702 21.6235 24.4873 21.6624 24.3965 21.7314C24.3167 21.7922 24.1329 21.9492 24.0449 22.2314C23.9393 22.5708 24.0324 22.8841 24.1719 23.0908C24.2872 23.2616 24.4253 23.3523 24.4834 23.3877C24.6052 23.4617 24.7162 23.4924 24.7432 23.5C24.8221 23.5223 24.8939 23.5336 24.9258 23.5381C25.0049 23.5492 25.1009 23.5574 25.1973 23.5645C25.3981 23.579 25.6902 23.5935 26.0654 23.6084C26.8129 23.6381 27.9311 23.6687 29.4219 23.7031C29.4309 23.7034 29.4401 23.7048 29.4492 23.7051C29.4586 23.7055 29.4681 23.7046 29.4775 23.7051C31.6188 23.8105 34.4907 23.8073 37.6064 23.832C38.8737 23.8548 40.1667 23.8755 41.5449 23.8867C43.3445 23.9578 44.5968 23.994 45.6387 24.0107C45.6369 30.3216 45.7111 43.5296 45.8096 55.1924C45.6318 60.4084 45.478 65.2897 45.3857 68.9902C44.8504 69.6392 43.9141 70.9578 43.0127 72.249C42.0464 73.6332 41.1066 75.0014 40.666 75.5977C40.6122 75.6608 40.5648 75.7201 40.5205 75.7705C40.3383 75.9779 40.359 76.2943 40.5664 76.4766C40.7738 76.6588 41.0902 76.6381 41.2725 76.4307C41.315 76.3822 41.3603 76.3261 41.4111 76.2666C41.4205 76.256 41.4318 76.2459 41.4404 76.2344C41.4443 76.2291 41.4481 76.2232 41.4521 76.2178C42.2811 75.2408 44.0496 72.9937 45.3301 71.3457C45.3119 72.2872 45.3001 73.1031 45.2969 73.7695C45.2948 74.2347 45.6112 74.6256 46.041 74.7393C46.0442 74.8909 46.0456 75.0365 46.0488 75.1748C46.0618 75.7267 46.5203 76.1641 47.0723 76.1514C47.6241 76.1385 48.0612 75.6807 48.0488 75.1289C48.0336 74.4668 48.0204 73.6481 48.0049 72.6973C49.3143 73.8118 51.6376 75.6992 52.335 76.2578C52.4237 76.3289 52.5302 76.3626 52.6357 76.3652C52.8385 76.5019 53.1152 76.4743 53.2842 76.2881C53.4694 76.0833 53.4538 75.7663 53.249 75.5811C52.4314 74.8415 49.0607 71.8614 48.2715 71.0996C48.1882 71.0193 48.0843 70.9754 47.9775 70.9639C47.92 66.9305 47.8609 61.2766 47.8096 55.2002C48.2224 43.1103 48.7481 29.2239 48.8418 24.0244C49.9465 24.0166 51.3411 23.9799 53.6504 23.8867C58.6964 23.8662 61.734 23.8381 64.5146 23.7051L64.5156 23.7061C66.1139 23.6875 67.3388 23.6635 68.1719 23.6377C68.3765 23.6314 68.5593 23.621 68.7197 23.6143C68.8974 23.6099 69.0455 23.6074 69.1631 23.6035C69.2688 23.6 69.3598 23.596 69.4277 23.5918C69.4588 23.5899 69.5026 23.5873 69.5459 23.582C69.5635 23.5799 69.6107 23.5736 69.667 23.5605C69.6911 23.5549 69.7587 23.5392 69.8389 23.5049C69.8785 23.4879 69.9547 23.4527 70.0391 23.3906C70.1126 23.3365 70.2814 23.1973 70.3789 22.9463C70.4981 22.6394 70.4499 22.3237 70.3125 22.085C70.2478 21.9725 70.1705 21.8913 70.1055 21.834C70.0927 21.8217 70.082 21.8091 70.0713 21.7998C69.9061 21.6558 69.7342 21.6039 69.7119 21.5967C69.6143 21.5651 69.5248 21.5532 69.4941 21.5488C69.4081 21.5367 69.3038 21.5281 69.2012 21.5215C68.986 21.5077 68.6709 21.4946 68.2617 21.4834C67.4419 21.461 66.2029 21.4437 64.5332 21.4316L64.5342 21.4307C61.47 21.3373 57.5505 21.2004 53.6465 21.1562C51.954 21.0901 50.7031 21.0596 49.6592 21.0488Z" fill="#9B2C2C"/>
</svg>
