<svg width="206" height="111" viewBox="0 0 206 111" fill="none" xmlns="http://www.w3.org/2000/svg">
<g clip-path="url(#clip0_28_24)">
<path d="M206 0H0V111H206V0Z" fill="#9B2C2C"/>
</g>
<path d="M99.6818 92.3636H100.455L104.938 102.977H105.017L109.5 92.3636H110.273V104H109.591V94.0511H109.523L105.312 104H104.642L100.432 94.0511H100.364V104H99.6818V92.3636ZM116.794 104.182C116.006 104.182 115.321 103.987 114.737 103.597C114.154 103.206 113.703 102.672 113.385 101.994C113.067 101.316 112.908 100.544 112.908 99.6761C112.908 98.8049 113.067 98.0284 113.385 97.3466C113.707 96.6648 114.148 96.1269 114.709 95.733C115.269 95.339 115.91 95.142 116.629 95.142C117.118 95.142 117.58 95.2405 118.016 95.4375C118.455 95.6307 118.841 95.911 119.175 96.2784C119.512 96.6458 119.775 97.089 119.964 97.608C120.158 98.1269 120.254 98.7102 120.254 99.358V99.7898H113.345V99.1591H119.561C119.561 98.5265 119.432 97.9564 119.175 97.4489C118.917 96.9413 118.567 96.5379 118.124 96.2386C117.68 95.9394 117.182 95.7898 116.629 95.7898C116.05 95.7898 115.533 95.9527 115.078 96.2784C114.627 96.6004 114.269 97.036 114.004 97.5852C113.743 98.1345 113.607 98.7481 113.595 99.4261V99.7102C113.595 100.437 113.722 101.091 113.976 101.67C114.233 102.246 114.601 102.703 115.078 103.04C115.555 103.373 116.127 103.54 116.794 103.54C117.271 103.54 117.679 103.46 118.016 103.301C118.357 103.138 118.635 102.941 118.851 102.71C119.067 102.479 119.23 102.256 119.339 102.04L119.97 102.295C119.838 102.587 119.631 102.879 119.351 103.17C119.074 103.458 118.722 103.699 118.294 103.892C117.87 104.085 117.37 104.182 116.794 104.182ZM128.186 97.1534L127.544 97.3239C127.442 97.0057 127.296 96.7311 127.107 96.5C126.917 96.2689 126.679 96.0909 126.391 95.9659C126.107 95.8371 125.766 95.7727 125.368 95.7727C124.728 95.7727 124.203 95.9318 123.794 96.25C123.389 96.5682 123.186 96.983 123.186 97.4943C123.186 97.911 123.324 98.2557 123.601 98.5284C123.877 98.7973 124.3 99.0019 124.868 99.142L126.209 99.4773C126.898 99.6477 127.417 99.9242 127.766 100.307C128.114 100.686 128.288 101.157 128.288 101.722C128.288 102.203 128.158 102.629 127.896 103C127.635 103.371 127.273 103.661 126.811 103.869C126.353 104.078 125.819 104.182 125.209 104.182C124.394 104.182 123.726 103.992 123.203 103.614C122.68 103.231 122.345 102.684 122.197 101.972L122.862 101.801C122.987 102.369 123.247 102.803 123.641 103.102C124.038 103.398 124.559 103.545 125.203 103.545C125.915 103.545 126.489 103.377 126.925 103.04C127.364 102.703 127.584 102.271 127.584 101.744C127.584 101.343 127.455 101.004 127.197 100.727C126.94 100.451 126.55 100.248 126.027 100.119L124.635 99.7784C123.923 99.6042 123.389 99.3258 123.033 98.9432C122.677 98.5568 122.499 98.0814 122.499 97.517C122.499 97.0473 122.622 96.6345 122.868 96.2784C123.114 95.9223 123.453 95.6439 123.885 95.4432C124.317 95.2424 124.811 95.142 125.368 95.142C126.107 95.142 126.709 95.3163 127.175 95.6648C127.641 96.0133 127.978 96.5095 128.186 97.1534ZM133 104.188C132.496 104.188 132.034 104.087 131.614 103.886C131.197 103.686 130.862 103.392 130.608 103.006C130.358 102.619 130.233 102.15 130.233 101.597C130.233 101.233 130.297 100.913 130.426 100.636C130.555 100.36 130.754 100.121 131.023 99.9205C131.292 99.7197 131.636 99.5549 132.057 99.4261C132.477 99.2936 132.979 99.1913 133.562 99.1193C134.006 99.0663 134.402 99.0152 134.75 98.9659C135.098 98.9129 135.371 98.8314 135.568 98.7216C135.769 98.6117 135.869 98.4451 135.869 98.2216V97.858C135.869 97.2216 135.669 96.7159 135.267 96.3409C134.866 95.9659 134.313 95.7784 133.608 95.7784C132.983 95.7784 132.456 95.9167 132.028 96.1932C131.604 96.4659 131.307 96.8182 131.136 97.25L130.483 97.0057C130.65 96.589 130.89 96.2424 131.205 95.9659C131.523 95.6894 131.886 95.483 132.295 95.3466C132.708 95.2102 133.14 95.142 133.591 95.142C133.981 95.142 134.352 95.197 134.705 95.3068C135.061 95.4167 135.377 95.5833 135.653 95.8068C135.934 96.0303 136.155 96.3163 136.318 96.6648C136.481 97.0095 136.562 97.4223 136.562 97.9034V104H135.869V102.426H135.818C135.667 102.752 135.458 103.049 135.193 103.318C134.932 103.583 134.616 103.795 134.244 103.955C133.877 104.11 133.462 104.188 133 104.188ZM133.068 103.545C133.614 103.545 134.097 103.413 134.517 103.148C134.941 102.879 135.273 102.511 135.511 102.045C135.75 101.58 135.869 101.051 135.869 100.46V99.1761C135.782 99.2519 135.655 99.3201 135.489 99.3807C135.326 99.4375 135.14 99.4886 134.932 99.5341C134.727 99.5758 134.511 99.6136 134.284 99.6477C134.061 99.678 133.843 99.7064 133.631 99.733C132.994 99.8087 132.475 99.9261 132.074 100.085C131.676 100.241 131.384 100.445 131.199 100.699C131.017 100.953 130.926 101.259 130.926 101.619C130.926 102.214 131.131 102.684 131.54 103.028C131.949 103.373 132.458 103.545 133.068 103.545Z" fill="white"/>
<line x1="62" y1="86.5" x2="178" y2="86.5" stroke="white"/>
<path d="M59.3853 79H57.8398L74.4762 32.4545H76.4762L93.1125 79H91.5671L75.5671 34.2727H75.3853L59.3853 79ZM64.658 61.8182H86.2944V63.2727H64.658V61.8182ZM137.368 32.4545V79H135.914L104.095 35.1818H103.914V79H102.459V32.4545H103.914L135.732 76.2727H135.914V32.4545H137.368ZM148.26 79H146.715L163.351 32.4545H165.351L181.988 79H180.442L164.442 34.2727H164.26L148.26 79ZM153.533 61.8182H175.169V63.2727H153.533V61.8182Z" fill="white"/>
<path d="M53.4989 13.2045C57.5589 13.4395 62.5789 13.472 69.2489 13.566ZM53.4989 13.2045C59.1389 13.2623 64.7989 13.4431 69.2489 13.566ZM69.2489 13.566C78.9789 13.6293 78.4989 13.8299 69.2489 13.9275ZM69.2489 13.566C78.8589 13.8154 78.7389 13.7341 69.2489 13.9275ZM69.2489 13.9275C65.2389 14.1028 60.8589 14.1389 53.4989 14.1661ZM69.2489 13.9275C65.2689 14.0323 60.6789 14.007 53.4989 14.1661ZM53.4989 14.1661C44.4889 14.3233 44.6189 14.4751 35.9989 14.1661ZM53.4989 14.1661C43.8789 14.5185 45.3289 14.2853 35.9989 14.1661ZM35.9989 14.1661C29.2489 14.0287 22.8689 14.1263 18.4989 13.9275ZM35.9989 14.1661C29.8589 14.1209 24.8889 13.9672 18.4989 13.9275ZM18.4989 13.9275C9.95891 13.6528 10.5489 13.669 18.4989 13.566ZM18.4989 13.9275C9.74891 13.7449 9.91891 13.6112 18.4989 13.566ZM18.4989 13.566C24.9489 13.4051 31.7489 13.3148 35.9989 13.2045ZM18.4989 13.566C23.3689 13.51 28.7389 13.3401 35.9989 13.2045ZM35.9989 13.2045C44.2589 13.1629 44.6489 12.89 53.4989 13.2045ZM35.9989 13.2045C43.7489 12.8611 44.8689 13.0129 53.4989 13.2045Z" fill="white"/>
<path d="M53.4989 13.2045C57.5589 13.4395 62.5789 13.472 69.2489 13.566M53.4989 13.2045C59.1389 13.2623 64.7989 13.4431 69.2489 13.566M53.4989 13.2045C44.6489 12.89 44.2589 13.1629 35.9989 13.2045M53.4989 13.2045C44.8689 13.0129 43.7489 12.8611 35.9989 13.2045M69.2489 13.566C78.9789 13.6293 78.4989 13.8299 69.2489 13.9275M69.2489 13.566C78.8589 13.8154 78.7389 13.7341 69.2489 13.9275M69.2489 13.9275C65.2389 14.1028 60.8589 14.1389 53.4989 14.1661M69.2489 13.9275C65.2689 14.0323 60.6789 14.007 53.4989 14.1661M53.4989 14.1661C44.4889 14.3233 44.6189 14.4751 35.9989 14.1661M53.4989 14.1661C43.8789 14.5185 45.3289 14.2853 35.9989 14.1661M35.9989 14.1661C29.2489 14.0287 22.8689 14.1263 18.4989 13.9275M35.9989 14.1661C29.8589 14.1209 24.8889 13.9672 18.4989 13.9275M18.4989 13.9275C9.95891 13.6528 10.5489 13.669 18.4989 13.566M18.4989 13.9275C9.74891 13.7449 9.91891 13.6112 18.4989 13.566M18.4989 13.566C24.9489 13.4051 31.7489 13.3148 35.9989 13.2045M18.4989 13.566C23.3689 13.51 28.7389 13.3401 35.9989 13.2045" stroke="white" stroke-width="2" stroke-linecap="round"/>
<path d="M43.3632 13.3128C43.3132 24.8328 43.6632 71.4428 43.9532 82.8528ZM45.1032 15.6028C44.8832 26.7828 42.9232 69.8228 42.8632 81.0428Z" fill="white"/>
<path d="M43.3632 13.3128C43.3132 24.8328 43.6632 71.4428 43.9532 82.8528M45.1032 15.6028C44.8832 26.7828 42.9232 69.8228 42.8632 81.0428" stroke="white" stroke-width="2" stroke-linecap="round"/>
<path d="M35.2433 83.8844C36.4995 82.3549 40.8598 76.4582 42.262 75ZM35.0367 84.1011C36.4876 82.6041 41.4928 76.7779 42.7489 75.2614Z" fill="white"/>
<path d="M35.2433 83.8844C36.4995 82.3549 40.8598 76.4582 42.262 75M35.0367 84.1011C36.4876 82.6041 41.4928 76.7779 42.7489 75.2614" stroke="white" stroke-linecap="round"/>
<path d="M52.4526 83.9051C51.2886 82.9504 46.3764 79.0103 45.2224 78ZM52.0679 83.794C50.7954 82.8696 45.8832 79.2528 44.7489 78.2879Z" fill="white"/>
<path d="M52.4526 83.9051C51.2886 82.9504 46.3764 79.0103 45.2224 78M52.0679 83.794C50.7954 82.8696 45.8832 79.2528 44.7489 78.2879" stroke="white" stroke-linecap="round"/>
<defs>
<clipPath id="clip0_28_24">
<rect width="206" height="111" fill="white"/>
</clipPath>
</defs>
</svg>
